<svg width="116" height="116" viewBox="0 0 116 116" fill="none" xmlns="http://www.w3.org/2000/svg">
<path d="M39.25 76.75L76.75 39.25" stroke="#232323" stroke-width="2" stroke-linecap="round" stroke-linejoin="round"/>
<path d="M42.375 45.5C44.1009 45.5 45.5 44.1009 45.5 42.375C45.5 40.6491 44.1009 39.25 42.375 39.25C40.6491 39.25 39.25 40.6491 39.25 42.375C39.25 44.1009 40.6491 45.5 42.375 45.5Z" fill="#232323" stroke="#232323" stroke-width="2" stroke-linecap="round" stroke-linejoin="round"/>
<path d="M73.6249 76.75C75.3508 76.75 76.7499 75.3509 76.7499 73.625C76.7499 71.8991 75.3508 70.5 73.6249 70.5C71.8991 70.5 70.4999 71.8991 70.4999 73.625C70.4999 75.3509 71.8991 76.75 73.6249 76.75Z" fill="#232323" stroke="#232323" stroke-width="2" stroke-linecap="round" stroke-linejoin="round"/>
<path d="M14.2498 27.9999C14.2498 24.3531 15.6985 20.8558 18.2771 18.2771C20.8557 15.6985 24.3531 14.2499 27.9998 14.2499H34.2498C37.8804 14.2478 41.3629 12.8099 43.9373 10.2499L48.3123 5.87486C49.5901 4.58986 51.1093 3.57012 52.7826 2.87428C54.4558 2.17844 56.2502 1.82022 58.0623 1.82022C59.8745 1.82022 61.6688 2.17844 63.3421 2.87428C65.0153 3.57012 66.5345 4.58986 67.8123 5.87486L72.1873 10.2499C74.7618 12.8099 78.2442 14.2478 81.8748 14.2499H88.1248C91.7716 14.2499 95.2689 15.6985 97.8475 18.2771C100.426 20.8558 101.875 24.3531 101.875 27.9999V34.2499C101.877 37.8805 103.315 41.3629 105.875 43.9374L110.25 48.3124C111.535 49.5902 112.555 51.1094 113.25 52.7826C113.946 54.4559 114.304 56.2502 114.304 58.0624C114.304 59.8745 113.946 61.6688 113.25 63.3421C112.555 65.0153 111.535 66.5346 110.25 67.8124L105.875 72.1874C103.315 74.7618 101.877 78.2442 101.875 81.8749V88.1249C101.875 91.7716 100.426 95.2689 97.8475 97.8476C95.2689 100.426 91.7716 101.875 88.1248 101.875H81.8748C78.2442 101.877 74.7618 103.315 72.1873 105.875L67.8123 110.25C66.5345 111.535 65.0153 112.555 63.3421 113.25C61.6688 113.946 59.8745 114.304 58.0623 114.304C56.2502 114.304 54.4558 113.946 52.7826 113.25C51.1093 112.555 49.5901 111.535 48.3123 110.25L43.9373 105.875C41.3629 103.315 37.8804 101.877 34.2498 101.875H27.9998C24.3531 101.875 20.8557 100.426 18.2771 97.8476C15.6985 95.2689 14.2498 91.7716 14.2498 88.1249V81.8749C14.2478 78.2442 12.8098 74.7618 10.2498 72.1874L5.87483 67.8124C4.58983 66.5346 3.57009 65.0153 2.87425 63.3421C2.17841 61.6688 1.82019 59.8745 1.82019 58.0624C1.82019 56.2502 2.17841 54.4559 2.87425 52.7826C3.57009 51.1094 4.58983 49.5902 5.87483 48.3124L10.2498 43.9374C12.8098 41.3629 14.2478 37.8805 14.2498 34.2499V27.9999" stroke="#232323" stroke-width="2" stroke-linecap="round" stroke-linejoin="round"/>
</svg>
