<svg width="126" height="114" viewBox="0 0 126 114" fill="none" xmlns="http://www.w3.org/2000/svg">
<path d="M125.5 63.25C125.5 70.1875 119.938 75.75 113 75.75H13C9.68479 75.75 6.50537 74.433 4.16116 72.0888C1.81696 69.7446 0.5 66.5652 0.5 63.25C0.5 59.9348 1.81696 56.7554 4.16116 54.4112C6.50537 52.067 9.68479 50.75 13 50.75H69.25L84.875 63.25L100.5 50.75H113C116.315 50.75 119.495 52.067 121.839 54.4112C124.183 56.7554 125.5 59.9348 125.5 63.25ZM63 0.75C6.75 0.75 6.75 38.25 6.75 38.25H119.25C119.25 38.25 119.25 0.75 63 0.75ZM6.75 94.5C6.75 104.875 15.125 113.25 25.5 113.25H100.5C110.875 113.25 119.25 104.875 119.25 94.5V88.25H6.75V94.5Z" fill="#232323"/>
</svg>
