<svg width="98" height="126" viewBox="0 0 98 126" fill="none" xmlns="http://www.w3.org/2000/svg">
<path d="M97.0625 4.41903C97.1636 5.02641 97.144 5.64775 97.0049 6.24756C96.8658 6.84738 96.6099 7.41391 96.2518 7.91479C95.8937 8.41568 95.4404 8.8411 94.9178 9.16676C94.3953 9.49243 93.8137 9.71195 93.2062 9.81278L58.8938 15.5315L58.1563 19.2503H83.0625C84.3057 19.2503 85.498 19.7441 86.3771 20.6232C87.2561 21.5023 87.75 22.6946 87.75 23.9378V48.9378C87.7494 54.0541 85.8181 58.9818 82.342 62.7359C78.8659 66.4901 74.1012 68.7942 69 69.1878V72.3753C69 84.5815 60.25 94.744 48.6875 96.9378V116.125H64.3125C65.5557 116.125 66.748 116.619 67.6271 117.498C68.5061 118.377 69 119.57 69 120.813C69 122.056 68.5061 123.248 67.6271 124.127C66.748 125.006 65.5557 125.5 64.3125 125.5H23.6875C22.4443 125.5 21.252 125.006 20.3729 124.127C19.4939 123.248 19 122.056 19 120.813C19 119.57 19.4939 118.377 20.3729 117.498C21.252 116.619 22.4443 116.125 23.6875 116.125H39.3125V96.9378C33.5981 95.8458 28.4434 92.7955 24.7358 88.3121C21.0282 83.8288 18.9998 78.193 19 72.3753V69.1878C13.8988 68.7942 9.13406 66.4901 5.65799 62.7359C2.18191 58.9818 0.250583 54.0541 0.25 48.9378V23.9378C0.25 22.6946 0.74386 21.5023 1.62294 20.6232C2.50201 19.7441 3.6943 19.2503 4.9375 19.2503H48.5937L50.3438 10.519C50.5299 9.5861 50.9955 8.73189 51.6787 8.06988C52.3619 7.40788 53.2304 6.96943 54.1687 6.81278L91.6688 0.562781C92.2761 0.461698 92.8975 0.481269 93.4973 0.620374C94.0971 0.75948 94.6636 1.0154 95.1645 1.3735C95.6654 1.73161 96.0908 2.18489 96.4165 2.70745C96.7421 3.23001 96.9617 3.81161 97.0625 4.41903ZM43.9062 42.6878L46.7188 28.6253H9.625V42.6878H43.9062ZM78.375 42.6878V28.6253H56.2813L53.4688 42.6878H78.375Z" fill="#232323"/>
</svg>
