<svg width="106" height="126" viewBox="0 0 106 126" fill="none" xmlns="http://www.w3.org/2000/svg">
<path d="M0.268751 17.125C0.268751 7.775 7.9625 -0.4 17.9 0.58125C50.2578 3.78687 80.2364 19.0126 101.913 43.25C108.6 50.7063 106.519 61.775 98.9188 67.2813L96.275 69.2L94.0062 65.825L93.9563 65.7562C74.0187 38.2125 41.5813 20.2875 4.95625 20.2875H0.268751V17.125V17.125ZM86.3187 71.1875L88.6813 74.7063L64.0125 92.6125L62.75 93.55V106.687C62.75 108.345 62.0915 109.935 60.9194 111.107C59.7473 112.279 58.1576 112.937 56.5 112.937C54.8424 112.937 53.2527 112.279 52.0806 111.107C50.9085 109.935 50.25 108.345 50.25 106.687V106.313C50.15 105.526 49.7547 104.807 49.1442 104.301C48.5337 103.795 47.7536 103.54 46.962 103.587C46.1705 103.635 45.4267 103.982 44.8813 104.557C44.3359 105.133 44.0298 105.895 44.025 106.687V116.069C44.0252 117.672 43.409 119.215 42.304 120.377C41.1989 121.539 39.6895 122.231 38.0879 122.312C36.4863 122.392 34.9152 121.854 33.6995 120.808C32.4837 119.762 31.7164 118.289 31.5563 116.694L22.5563 123.194C13.25 129.906 0.243752 123.263 0.250002 111.781L0.268751 29.6562H4.95625C38.4188 29.6562 68.0562 46.0125 86.3187 71.1875V71.1875ZM25.275 56.6875C26.9326 56.6875 28.5223 56.029 29.6944 54.8569C30.8665 53.6848 31.525 52.0951 31.525 50.4375C31.525 48.7799 30.8665 47.1902 29.6944 46.0181C28.5223 44.846 26.9326 44.1875 25.275 44.1875C23.6174 44.1875 22.0277 44.846 20.8556 46.0181C19.6835 47.1902 19.025 48.7799 19.025 50.4375C19.025 52.0951 19.6835 53.6848 20.8556 54.8569C22.0277 56.029 23.6174 56.6875 25.275 56.6875V56.6875ZM50.275 75.425C51.9326 75.425 53.5223 74.7665 54.6944 73.5944C55.8665 72.4223 56.525 70.8326 56.525 69.175C56.525 67.5174 55.8665 65.9277 54.6944 64.7556C53.5223 63.5835 51.9326 62.925 50.275 62.925C48.6174 62.925 47.0277 63.5835 45.8556 64.7556C44.6835 65.9277 44.025 67.5174 44.025 69.175C44.025 70.8326 44.6835 72.4223 45.8556 73.5944C47.0277 74.7665 48.6174 75.425 50.275 75.425V75.425ZM25.275 94.1625C26.9326 94.1625 28.5223 93.504 29.6944 92.3319C30.8665 91.1598 31.525 89.5701 31.525 87.9125C31.525 86.2549 30.8665 84.6652 29.6944 83.4931C28.5223 82.321 26.9326 81.6625 25.275 81.6625C23.6174 81.6625 22.0277 82.321 20.8556 83.4931C19.6835 84.6652 19.025 86.2549 19.025 87.9125C19.025 89.5701 19.6835 91.1598 20.8556 92.3319C22.0277 93.504 23.6174 94.1625 25.275 94.1625V94.1625Z" fill="#232323"/>
</svg>
